{
  "accessors": [
    {
      "bufferView": 2,
      "componentType": 5126,
      "count": 4251,
      "max": [
        1367.28125,
        693.33349609375,
        1704.38330078125
      ],
      "min": [
        -17472.22265625,
        -9946.6455078125,
        -7117.7548828125
      ],
      "type": "VEC3"
    },
    {
      "bufferView": 2,
      "byteOffset": 51012,
      "componentType": 5126,
      "count": 4251,
      "max": [
        1,
        1,
        1
      ],
      "min": [
        -1,
        -1,
        -1
      ],
      "type": "VEC3"
    },
    {
      "bufferView": 3,
      "componentType": 5126,
      "count": 4251,
      "max": [
        1,
        1,
        1,
        1
      ],
      "min": [
        -1,
        -0.99999415874481201,
        -1,
        -1
      ],
      "type": "VEC4"
    },
    {
      "bufferView": 1,
      "componentType": 5126,
      "count": 4251,
      "max": [
        0.99978256225585938,
        0.99897551536560059
      ],
      "min": [
        0.00015571899712085724,
        0.0011228950461372733
      ],
      "type": "VEC2"
    },
    {
      "bufferView": 1,
      "byteOffset": 34008,
      "componentType": 5126,
      "count": 4251,
      "max": [
        0.99978256225585938,
        0.99897551536560059
      ],
      "min": [
        0.00015571899712085724,
        0.0011228950461372733
      ],
      "type": "VEC2"
    },
    {
      "bufferView": 1,
      "byteOffset": 68016,
      "componentType": 5126,
      "count": 4251,
      "max": [
        0.99978256225585938,
        0.99897551536560059
      ],
      "min": [
        0.00015571899712085724,
        0.0011228950461372733
      ],
      "type": "VEC2"
    },
    {
      "bufferView": 1,
      "byteOffset": 102024,
      "componentType": 5126,
      "count": 4251,
      "max": [
        0.99978256225585938,
        0.99897551536560059
      ],
      "min": [
        0.00015571899712085724,
        0.0011228950461372733
      ],
      "type": "VEC2"
    },
    {
      "bufferView": 1,
      "byteOffset": 136032,
      "componentType": 5126,
      "count": 4251,
      "max": [
        0.99978256225585938,
        0.99897551536560059
      ],
      "min": [
        0.00015571899712085724,
        0.0011228950461372733
      ],
      "type": "VEC2"
    },
    {
      "bufferView": 1,
      "byteOffset": 170040,
      "componentType": 5126,
      "count": 4251,
      "max": [
        0.99978256225585938,
        0.99897551536560059
      ],
      "min": [
        0.00015571899712085724,
        0.0011228950461372733
      ],
      "type": "VEC2"
    },
    {
      "bufferView": 1,
      "byteOffset": 204048,
      "componentType": 5126,
      "count": 4251,
      "max": [
        0.99978256225585938,
        0.99897551536560059
      ],
      "min": [
        0.00015571899712085724,
        0.0011228950461372733
      ],
      "type": "VEC2"
    },
    {
      "bufferView": 1,
      "byteOffset": 238056,
      "componentType": 5126,
      "count": 4251,
      "max": [
        0.99978256225585938,
        0.99897551536560059
      ],
      "min": [
        0.00015571899712085724,
        0.0011228950461372733
      ],
      "type": "VEC2"
    },
    {
      "bufferView": 1,
      "byteOffset": 272064,
      "componentType": 5126,
      "count": 4251,
      "max": [
        0.99978256225585938,
        0.99897551536560059
      ],
      "min": [
        0.00015571899712085724,
        0.0011228950461372733
      ],
      "type": "VEC2"
    },
    {
      "bufferView": 1,
      "byteOffset": 306072,
      "componentType": 5126,
      "count": 4251,
      "max": [
        0.99978256225585938,
        0.99897551536560059
      ],
      "min": [
        0.00015571899712085724,
        0.0011228950461372733
      ],
      "type": "VEC2"
    },
    {
      "bufferView": 0,
      "componentType": 5125,
      "count": 11814,
      "max": [
        4250
      ],
      "min": [
        0
      ],
      "type": "SCALAR"
    }
  ],
  "asset": {
    "extras": {
      "author": "Thunder (https://sketchfab.com/thunderpwn)",
      "license": "CC-BY-SA-4.0 (http://creativecommons.org/licenses/by-sa/4.0/)",
      "source": "https://sketchfab.com/3d-models/old-stove-94d1176a440f4c578f19cfee0795a8a7",
      "title": "Old Stove"
    },
    "generator": "Sketchfab-9.37.0",
    "version": "2.0"
  },
  "bufferViews": [
    {
      "buffer": 0,
      "byteLength": 47256,
      "byteOffset": 0,
      "name": "floatBufferViews",
      "target": 34963
    },
    {
      "buffer": 0,
      "byteLength": 340080,
      "byteOffset": 47256,
      "byteStride": 8,
      "name": "floatBufferViews",
      "target": 34962
    },
    {
      "buffer": 0,
      "byteLength": 102024,
      "byteOffset": 387336,
      "byteStride": 12,
      "name": "floatBufferViews",
      "target": 34962
    },
    {
      "buffer": 0,
      "byteLength": 68016,
      "byteOffset": 489360,
      "byteStride": 16,
      "name": "floatBufferViews",
      "target": 34962
    }
  ],
  "buffers": [
    {
      "byteLength": 557376,
      "uri": "scene.bin"
    }
  ],
  "images": [
    {
      "uri": "textures/DefaultMaterial_baseColor.png"
    },
    {
      "uri": "textures/DefaultMaterial_metallicRoughness.png"
    },
    {
      "uri": "textures/DefaultMaterial_normal.png"
    }
  ],
  "materials": [
    {
      "doubleSided": true,
      "emissiveFactor": [
        0,
        0,
        0
      ],
      "name": "DefaultMaterial",
      "normalTexture": {
        "index": 2,
        "scale": 1,
        "texCoord": 0
      },
      "pbrMetallicRoughness": {
        "baseColorFactor": [
          1,
          1,
          1,
          1
        ],
        "baseColorTexture": {
          "index": 0,
          "texCoord": 0
        },
        "metallicFactor": 1,
        "metallicRoughnessTexture": {
          "index": 1,
          "texCoord": 0
        },
        "roughnessFactor": 1
      }
    }
  ],
  "meshes": [
    {
      "name": "Cylinder.005_DefaultMaterial_0",
      "primitives": [
        {
          "attributes": {
            "NORMAL": 1,
            "POSITION": 0,
            "TANGENT": 2,
            "TEXCOORD_0": 3,
            "TEXCOORD_1": 4,
            "TEXCOORD_2": 5,
            "TEXCOORD_3": 6,
            "TEXCOORD_4": 7,
            "TEXCOORD_5": 8,
            "TEXCOORD_6": 9,
            "TEXCOORD_7": 10,
            "TEXCOORD_8": 11,
            "TEXCOORD_9": 12
          },
          "indices": 13,
          "material": 0,
          "mode": 4
        }
      ]
    }
  ],
  "nodes": [
    {
      "children": [
        1
      ],
      "name": "RootNode (gltf orientation matrix)",
      "rotation": [
        -0.70710678118654746,
        -0,
        -0,
        0.70710678118654757
      ]
    },
    {
      "children": [
        2
      ],
      "name": "RootNode (model correction matrix)"
    },
    {
      "children": [
        3
      ],
      "matrix": [
        1,
        0,
        0,
        0,
        0,
        0,
        1,
        0,
        0,
        -1,
        0,
        0,
        0,
        0,
        0,
        1
      ],
      "name": "stove.fbx"
    },
    {
      "children": [
        4
      ],
      "name": "RootNode"
    },
    {
      "children": [
        5
      ],
      "matrix": [
        0.011082367040216923,
        0,
        0,
        0,
        0,
        -1.4757064303250922e-09,
        0.011082367040216824,
        0,
        0,
        -0.030457662418484417,
        -4.0556830612559271e-09,
        0,
        44.510246276855469,
        51.462142944335938,
        51.274307250976562,
        1
      ],
      "name": "Cylinder.005"
    },
    {
      "mesh": 0,
      "name": "Cylinder.005_DefaultMaterial_0"
    }
  ],
  "samplers": [
    {
      "magFilter": 9729,
      "minFilter": 9987,
      "wrapS": 10497,
      "wrapT": 10497
    }
  ],
  "scene": 0,
  "scenes": [
    {
      "name": "OSG_Scene",
      "nodes": [
        0
      ]
    }
  ],
  "textures": [
    {
      "sampler": 0,
      "source": 0
    },
    {
      "sampler": 0,
      "source": 1
    },
    {
      "sampler": 0,
      "source": 2
    }
  ]
}

