{
  "accessors": [
    {
      "bufferView": 2,
      "componentType": 5126,
      "count": 65533,
      "max": [
        8.2160396575927734,
        8.8036098480224609,
        13.255279541015625
      ],
      "min": [
        -6.4923601150512695,
        1.946619987487793,
        -2.6408300399780273
      ],
      "type": "VEC3"
    },
    {
      "bufferView": 2,
      "byteOffset": 786396,
      "componentType": 5126,
      "count": 65533,
      "max": [
        0.89850097894668579,
        0.99557870626449585,
        0.99996834993362427
      ],
      "min": [
        -0.99997252225875854,
        -0.99999535083770752,
        -0.99990248680114746
      ],
      "type": "VEC3"
    },
    {
      "bufferView": 3,
      "componentType": 5126,
      "count": 65533,
      "max": [
        0.98591291904449463,
        0.99545204639434814,
        0.99989825487136841,
        1
      ],
      "min": [
        -0.99951469898223877,
        -0.99786198139190674,
        -0.99940425157546997,
        -1
      ],
      "type": "VEC4"
    },
    {
      "bufferView": 1,
      "componentType": 5126,
      "count": 65533,
      "max": [
        0.99852997064590454,
        0.99876999855041504
      ],
      "min": [
        0.0012199999764561653,
        0.0022100000642240047
      ],
      "type": "VEC2"
    },
    {
      "bufferView": 0,
      "componentType": 5125,
      "count": 65535,
      "max": [
        65532
      ],
      "min": [
        0
      ],
      "type": "SCALAR"
    },
    {
      "bufferView": 2,
      "byteOffset": 1572792,
      "componentType": 5126,
      "count": 65532,
      "max": [
        -0.2803800106048584,
        8.6979198455810547,
        13.459349632263184
      ],
      "min": [
        -5.3218097686767578,
        -3.7307100296020508,
        -1.5944499969482422
      ],
      "type": "VEC3"
    },
    {
      "bufferView": 2,
      "byteOffset": 2359176,
      "componentType": 5126,
      "count": 65532,
      "max": [
        0.96178263425827026,
        0.99689477682113647,
        0.99885809421539307
      ],
      "min": [
        -0.9999922513961792,
        -0.99999713897705078,
        -0.99993002414703369
      ],
      "type": "VEC3"
    },
    {
      "bufferView": 3,
      "byteOffset": 1048528,
      "componentType": 5126,
      "count": 65532,
      "max": [
        0.9980883002281189,
        0.99810236692428589,
        0.99994933605194092,
        -1
      ],
      "min": [
        -0.9999205470085144,
        -0.99926018714904785,
        -0.99993896484375,
        -1
      ],
      "type": "VEC4"
    },
    {
      "bufferView": 1,
      "byteOffset": 524264,
      "componentType": 5126,
      "count": 65532,
      "max": [
        0.9987800121307373,
        0.99876999855041504
      ],
      "min": [
        0.0012199999764561653,
        0.0014700000174343586
      ],
      "type": "VEC2"
    },
    {
      "bufferView": 0,
      "byteOffset": 262140,
      "componentType": 5125,
      "count": 65532,
      "max": [
        65531
      ],
      "min": [
        0
      ],
      "type": "SCALAR"
    },
    {
      "bufferView": 2,
      "byteOffset": 3145560,
      "componentType": 5126,
      "count": 65533,
      "max": [
        7.8059201240539551,
        2.16090989112854,
        13.308770179748535
      ],
      "min": [
        -3.6559300422668457,
        -4.0090599060058594,
        -2.4884500503540039
      ],
      "type": "VEC3"
    },
    {
      "bufferView": 2,
      "byteOffset": 3931956,
      "componentType": 5126,
      "count": 65533,
      "max": [
        0.99496418237686157,
        0.75258207321166992,
        0.99994498491287231
      ],
      "min": [
        -0.99987226724624634,
        -0.999916672706604,
        -0.99998044967651367
      ],
      "type": "VEC3"
    },
    {
      "bufferView": 3,
      "byteOffset": 2097040,
      "componentType": 5126,
      "count": 65533,
      "max": [
        0.99443888664245605,
        0.9777495265007019,
        0.9999813437461853,
        -1
      ],
      "min": [
        -0.99997860193252563,
        -0.99982142448425293,
        -0.9999731183052063,
        -1
      ],
      "type": "VEC4"
    },
    {
      "bufferView": 1,
      "byteOffset": 1048520,
      "componentType": 5126,
      "count": 65533,
      "max": [
        0.9987800121307373,
        0.99753999710083008
      ],
      "min": [
        0.0012199999764561653,
        0.0036800000816583633
      ],
      "type": "VEC2"
    },
    {
      "bufferView": 0,
      "byteOffset": 524268,
      "componentType": 5125,
      "count": 65535,
      "max": [
        65532
      ],
      "min": [
        0
      ],
      "type": "SCALAR"
    },
    {
      "bufferView": 2,
      "byteOffset": 4718352,
      "componentType": 5126,
      "count": 65533,
      "max": [
        8.7855300903320312,
        2.1443099975585938,
        13.68163013458252
      ],
      "min": [
        -0.69213998317718506,
        -5.1133599281311035,
        0.33164998888969421
      ],
      "type": "VEC3"
    },
    {
      "bufferView": 2,
      "byteOffset": 5504748,
      "componentType": 5126,
      "count": 65533,
      "max": [
        0.99919962882995605,
        0.52829247713088989,
        0.99930453300476074
      ],
      "min": [
        -0.9934227466583252,
        -0.99996441602706909,
        -1
      ],
      "type": "VEC3"
    },
    {
      "bufferView": 3,
      "byteOffset": 3145568,
      "componentType": 5126,
      "count": 65533,
      "max": [
        0.98948383331298828,
        0.99943500757217407,
        0.99504673480987549,
        -1
      ],
      "min": [
        -0.99995887279510498,
        -0.99966931343078613,
        -0.99877697229385376,
        -1
      ],
      "type": "VEC4"
    },
    {
      "bufferView": 1,
      "byteOffset": 1572784,
      "componentType": 5126,
      "count": 65533,
      "max": [
        0.9987800121307373,
        0.99041998386383057
      ],
      "min": [
        0.0012199999764561653,
        0.0017199999419972301
      ],
      "type": "VEC2"
    },
    {
      "bufferView": 0,
      "byteOffset": 786408,
      "componentType": 5125,
      "count": 65535,
      "max": [
        65532
      ],
      "min": [
        0
      ],
      "type": "SCALAR"
    },
    {
      "bufferView": 2,
      "byteOffset": 6291144,
      "componentType": 5126,
      "count": 12099,
      "max": [
        8.7875499725341797,
        8.8036098480224609,
        13.682290077209473
      ],
      "min": [
        -6.4949097633361816,
        -5.1078801155090332,
        -2.7239699363708496
      ],
      "type": "VEC3"
    },
    {
      "bufferView": 2,
      "byteOffset": 6436332,
      "componentType": 5126,
      "count": 12099,
      "max": [
        0.97185546159744263,
        0.74132215976715088,
        0.99838155508041382
      ],
      "min": [
        -0.99605321884155273,
        -0.9994889497756958,
        -0.99869513511657715
      ],
      "type": "VEC3"
    },
    {
      "bufferView": 3,
      "byteOffset": 4194096,
      "componentType": 5126,
      "count": 12099,
      "max": [
        0.97884625196456909,
        0.93312007188796997,
        0.99997389316558838,
        1
      ],
      "min": [
        -0.99584490060806274,
        -0.99548184871673584,
        -0.99744337797164917,
        -1
      ],
      "type": "VEC4"
    },
    {
      "bufferView": 1,
      "byteOffset": 2097048,
      "componentType": 5126,
      "count": 12099,
      "max": [
        0.95418000221252441,
        0.97741001844406128
      ],
      "min": [
        0.0079899998381733894,
        0.02556999959051609
      ],
      "type": "VEC2"
    },
    {
      "bufferView": 0,
      "byteOffset": 1048548,
      "componentType": 5125,
      "count": 13587,
      "max": [
        12098
      ],
      "min": [
        0
      ],
      "type": "SCALAR"
    }
  ],
  "asset": {
    "extras": {
      "author": "glasgowmuseums (https://sketchfab.com/glasgowmuseums)",
      "license": "CC-BY-NC-4.0 (http://creativecommons.org/licenses/by-nc/4.0/)",
      "source": "https://sketchfab.com/models/4cdcabc7890146a899ce8f87e8d143ef",
      "title": "Wooden head from above a fireplace (4)"
    },
    "generator": "Sketchfab-3.18.7",
    "version": "2.0"
  },
  "bufferViews": [
    {
      "buffer": 0,
      "byteLength": 1102896,
      "byteOffset": 0,
      "name": "floatBufferViews",
      "target": 34963
    },
    {
      "buffer": 0,
      "byteLength": 2193840,
      "byteOffset": 1102896,
      "byteStride": 8,
      "name": "floatBufferViews",
      "target": 34962
    },
    {
      "buffer": 0,
      "byteLength": 6581520,
      "byteOffset": 3296736,
      "byteStride": 12,
      "name": "floatBufferViews",
      "target": 34962
    },
    {
      "buffer": 0,
      "byteLength": 4387680,
      "byteOffset": 9878256,
      "byteStride": 16,
      "name": "floatBufferViews",
      "target": 34962
    }
  ],
  "buffers": [
    {
      "byteLength": 14265936,
      "uri": "scene.bin"
    }
  ],
  "extensionsUsed": [
    "KHR_materials_unlit"
  ],
  "images": [
    {
      "uri": "textures/Material_0_baseColor.jpeg"
    }
  ],
  "materials": [
    {
      "doubleSided": true,
      "emissiveFactor": [
        0,
        0,
        0
      ],
      "extensions": {
        "KHR_materials_unlit": {}
      },
      "name": "Material_0",
      "pbrMetallicRoughness": {
        "baseColorFactor": [
          1,
          1,
          1,
          1
        ],
        "baseColorTexture": {
          "index": 0,
          "texCoord": 0
        },
        "metallicFactor": 0,
        "roughnessFactor": 1
      }
    }
  ],
  "meshes": [
    {
      "name": "mesh_0",
      "primitives": [
        {
          "attributes": {
            "NORMAL": 1,
            "POSITION": 0,
            "TANGENT": 2,
            "TEXCOORD_0": 3
          },
          "indices": 4,
          "material": 0,
          "mode": 4
        }
      ]
    },
    {
      "name": "mesh_0",
      "primitives": [
        {
          "attributes": {
            "NORMAL": 6,
            "POSITION": 5,
            "TANGENT": 7,
            "TEXCOORD_0": 8
          },
          "indices": 9,
          "material": 0,
          "mode": 4
        }
      ]
    },
    {
      "name": "mesh_0",
      "primitives": [
        {
          "attributes": {
            "NORMAL": 11,
            "POSITION": 10,
            "TANGENT": 12,
            "TEXCOORD_0": 13
          },
          "indices": 14,
          "material": 0,
          "mode": 4
        }
      ]
    },
    {
      "name": "mesh_0",
      "primitives": [
        {
          "attributes": {
            "NORMAL": 16,
            "POSITION": 15,
            "TANGENT": 17,
            "TEXCOORD_0": 18
          },
          "indices": 19,
          "material": 0,
          "mode": 4
        }
      ]
    },
    {
      "name": "mesh_0",
      "primitives": [
        {
          "attributes": {
            "NORMAL": 21,
            "POSITION": 20,
            "TANGENT": 22,
            "TEXCOORD_0": 23
          },
          "indices": 24,
          "material": 0,
          "mode": 4
        }
      ]
    }
  ],
  "nodes": [
    {
      "children": [
        1
      ],
      "name": "RootNode (gltf orientation matrix)",
      "rotation": [
        -0.70710678118654746,
        -0,
        -0,
        0.70710678118654757
      ]
    },
    {
      "children": [
        2
      ],
      "name": "RootNode (model correction matrix)"
    },
    {
      "children": [
        3,
        5
      ],
      "name": "Root"
    },
    {
      "children": [
        4
      ],
      "matrix": [
        -0.29086000000000006,
        0.95517000000000007,
        -0.05519000000000001,
        0,
        -0.77110000000000001,
        -0.19988000000000003,
        0.60452000000000006,
        0,
        0.56639000000000006,
        0.21839000000000003,
        0.7946700000000001,
        0,
        4.0762500000000008,
        1.00545,
        5.9038600000000008,
        1
      ],
      "name": "Lamp"
    },
    {
      "name": "Lamp"
    },
    {
      "children": [
        6,
        7,
        8,
        9,
        10
      ],
      "matrix": [
        -0.16010000000000002,
        0.96859000000000006,
        -0.19025000000000003,
        0,
        -0.95237000000000005,
        -0.20225000000000001,
        -0.22821000000000005,
        0,
        -0.25952000000000003,
        0.14466000000000001,
        0.95484000000000013,
        0,
        2.24221,
        0.32814000000000004,
        -3.8524499999999993,
        1
      ],
      "name": "mesh"
    },
    {
      "mesh": 0,
      "name": "mesh_0"
    },
    {
      "mesh": 1,
      "name": "mesh_0"
    },
    {
      "mesh": 2,
      "name": "mesh_0"
    },
    {
      "mesh": 3,
      "name": "mesh_0"
    },
    {
      "mesh": 4,
      "name": "mesh_0"
    }
  ],
  "samplers": [
    {
      "magFilter": 9729,
      "minFilter": 9987,
      "wrapS": 10497,
      "wrapT": 10497
    }
  ],
  "scene": 0,
  "scenes": [
    {
      "name": "OSG_Scene",
      "nodes": [
        0
      ]
    }
  ],
  "textures": [
    {
      "sampler": 0,
      "source": 0
    }
  ]
}

