{
  "accessors": [
    {
      "bufferView": 2,
      "componentType": 5126,
      "count": 20692,
      "max": [
        0.19306899607181549,
        -0.014685300178825855,
        0.24735499918460846
      ],
      "min": [
        -0.19588500261306763,
        -0.15698599815368652,
        -0.044361099600791931
      ],
      "type": "VEC3"
    },
    {
      "bufferView": 2,
      "byteOffset": 248304,
      "componentType": 5126,
      "count": 20692,
      "max": [
        1,
        1,
        1
      ],
      "min": [
        -1,
        -0.99961376190185547,
        -1
      ],
      "type": "VEC3"
    },
    {
      "bufferView": 3,
      "componentType": 5126,
      "count": 20692,
      "max": [
        0.99999892711639404,
        1,
        0.99929779767990112,
        1
      ],
      "min": [
        -0.99961382150650024,
        -0.99999737739562988,
        -1,
        1
      ],
      "type": "VEC4"
    },
    {
      "bufferView": 1,
      "componentType": 5126,
      "count": 20692,
      "max": [
        0.9961090087890625,
        0.86022502183914185
      ],
      "min": [
        0.00097699998877942562,
        0.00097699998877942562
      ],
      "type": "VEC2"
    },
    {
      "bufferView": 0,
      "componentType": 5125,
      "count": 109692,
      "max": [
        20691
      ],
      "min": [
        0
      ],
      "type": "SCALAR"
    },
    {
      "bufferView": 2,
      "byteOffset": 496608,
      "componentType": 5126,
      "count": 65532,
      "max": [
        0.82748901844024658,
        0.15698599815368652,
        0.5778840184211731
      ],
      "min": [
        -0.82748901844024658,
        -0.15698599815368652,
        0.034626699984073639
      ],
      "type": "VEC3"
    },
    {
      "bufferView": 2,
      "byteOffset": 1282992,
      "componentType": 5126,
      "count": 65532,
      "max": [
        0.99999988079071045,
        1,
        0.99991101026535034
      ],
      "min": [
        -0.99999988079071045,
        -1,
        -0.99999988079071045
      ],
      "type": "VEC3"
    },
    {
      "bufferView": 3,
      "byteOffset": 331072,
      "componentType": 5126,
      "count": 65532,
      "max": [
        1,
        1,
        0.99998760223388672,
        1
      ],
      "min": [
        -1,
        -1,
        -0.99999302625656128,
        -1
      ],
      "type": "VEC4"
    },
    {
      "bufferView": 1,
      "byteOffset": 165536,
      "componentType": 5126,
      "count": 65532,
      "max": [
        0.99902302026748657,
        0.95822900533676147
      ],
      "min": [
        0.00097699998877942562,
        0.00097699998877942562
      ],
      "type": "VEC2"
    },
    {
      "bufferView": 0,
      "byteOffset": 438768,
      "componentType": 5125,
      "count": 363093,
      "max": [
        65531
      ],
      "min": [
        0
      ],
      "type": "SCALAR"
    },
    {
      "bufferView": 2,
      "byteOffset": 2069376,
      "componentType": 5126,
      "count": 13352,
      "max": [
        0.80466502904891968,
        0.14707900583744049,
        0.55317002534866333
      ],
      "min": [
        0.35632500052452087,
        -0.15698599815368652,
        0.044062800705432892
      ],
      "type": "VEC3"
    },
    {
      "bufferView": 2,
      "byteOffset": 2229600,
      "componentType": 5126,
      "count": 13352,
      "max": [
        0.99947291612625122,
        1,
        0.99989098310470581
      ],
      "min": [
        -0.999991774559021,
        -1,
        -0.99990487098693848
      ],
      "type": "VEC3"
    },
    {
      "bufferView": 3,
      "byteOffset": 1379584,
      "componentType": 5126,
      "count": 13352,
      "max": [
        0.99885141849517822,
        1,
        0.99992507696151733,
        1
      ],
      "min": [
        -0.99912834167480469,
        -1,
        -0.9931565523147583,
        -1
      ],
      "type": "VEC4"
    },
    {
      "bufferView": 1,
      "byteOffset": 689792,
      "componentType": 5126,
      "count": 13352,
      "max": [
        0.99506598711013794,
        0.95513498783111572
      ],
      "min": [
        0.020746000111103058,
        0.00097699998877942562
      ],
      "type": "VEC2"
    },
    {
      "bufferView": 0,
      "byteOffset": 1891140,
      "componentType": 5125,
      "count": 70155,
      "max": [
        13351
      ],
      "min": [
        0
      ],
      "type": "SCALAR"
    },
    {
      "bufferView": 2,
      "byteOffset": 2389824,
      "componentType": 5126,
      "count": 46482,
      "max": [
        0.39046600461006165,
        0.15698599815368652,
        -0.23905900120735168
      ],
      "min": [
        -0.39046600461006165,
        -0.15698599815368652,
        -0.60484302043914795
      ],
      "type": "VEC3"
    },
    {
      "bufferView": 2,
      "byteOffset": 2947608,
      "componentType": 5126,
      "count": 46482,
      "max": [
        1,
        1,
        1
      ],
      "min": [
        -1,
        -1,
        -1
      ],
      "type": "VEC3"
    },
    {
      "bufferView": 3,
      "byteOffset": 1593216,
      "componentType": 5126,
      "count": 46482,
      "max": [
        0.99999862909317017,
        1,
        1,
        1
      ],
      "min": [
        -0.99980610609054565,
        -1,
        -1,
        -1
      ],
      "type": "VEC4"
    },
    {
      "bufferView": 1,
      "byteOffset": 796608,
      "componentType": 5126,
      "count": 46482,
      "max": [
        0.99902302026748657,
        0.95299297571182251
      ],
      "min": [
        0.00097699998877942562,
        0.00097699998877942562
      ],
      "type": "VEC2"
    },
    {
      "bufferView": 0,
      "byteOffset": 2171760,
      "componentType": 5125,
      "count": 258768,
      "max": [
        46481
      ],
      "min": [
        0
      ],
      "type": "SCALAR"
    }
  ],
  "asset": {
    "extras": {
      "author": "Jakoza (https://sketchfab.com/Moe.T)",
      "license": "CC-BY-4.0 (http://creativecommons.org/licenses/by/4.0/)",
      "source": "https://sketchfab.com/3d-models/chesterfield-lounge-set-36ac2ea9644c4988ad780f3022fd4616",
      "title": "Chesterfield Lounge Set"
    },
    "generator": "Sketchfab-8.56.0",
    "version": "2.0"
  },
  "bufferViews": [
    {
      "buffer": 0,
      "byteLength": 3206832,
      "byteOffset": 0,
      "name": "floatBufferViews",
      "target": 34963
    },
    {
      "buffer": 0,
      "byteLength": 1168464,
      "byteOffset": 3206832,
      "byteStride": 8,
      "name": "floatBufferViews",
      "target": 34962
    },
    {
      "buffer": 0,
      "byteLength": 3505392,
      "byteOffset": 4375296,
      "byteStride": 12,
      "name": "floatBufferViews",
      "target": 34962
    },
    {
      "buffer": 0,
      "byteLength": 2336928,
      "byteOffset": 7880688,
      "byteStride": 16,
      "name": "floatBufferViews",
      "target": 34962
    }
  ],
  "buffers": [
    {
      "byteLength": 10217616,
      "uri": "scene.bin"
    }
  ],
  "images": [
    {
      "uri": "textures/CouchMat_baseColor.png"
    },
    {
      "uri": "textures/CouchMat_metallicRoughness.png"
    },
    {
      "uri": "textures/CouchMat_emissive.jpeg"
    },
    {
      "uri": "textures/CouchMat_normal.png"
    },
    {
      "uri": "textures/ChairMat_baseColor.jpeg"
    },
    {
      "uri": "textures/ChairMat_metallicRoughness.png"
    },
    {
      "uri": "textures/ChairMat_normal.png"
    }
  ],
  "materials": [
    {
      "alphaMode": "BLEND",
      "doubleSided": true,
      "emissiveFactor": [
        1,
        1,
        1
      ],
      "emissiveTexture": {
        "index": 2,
        "texCoord": 0
      },
      "name": "CouchMat",
      "normalTexture": {
        "index": 3,
        "scale": 1,
        "texCoord": 0
      },
      "occlusionTexture": {
        "index": 1,
        "strength": 1,
        "texCoord": 0
      },
      "pbrMetallicRoughness": {
        "baseColorFactor": [
          1,
          1,
          1,
          1
        ],
        "baseColorTexture": {
          "index": 0,
          "texCoord": 0
        },
        "metallicFactor": 1,
        "metallicRoughnessTexture": {
          "index": 1,
          "texCoord": 0
        },
        "roughnessFactor": 0.75
      }
    },
    {
      "doubleSided": true,
      "name": "ChairMat",
      "normalTexture": {
        "index": 6,
        "scale": 1,
        "texCoord": 0
      },
      "occlusionTexture": {
        "index": 5,
        "strength": 1,
        "texCoord": 0
      },
      "pbrMetallicRoughness": {
        "baseColorFactor": [
          1,
          1,
          1,
          1
        ],
        "baseColorTexture": {
          "index": 4,
          "texCoord": 0
        },
        "metallicFactor": 1,
        "metallicRoughnessTexture": {
          "index": 5,
          "texCoord": 0
        },
        "roughnessFactor": 0.75
      }
    }
  ],
  "meshes": [
    {
      "name": "defaultMaterial",
      "primitives": [
        {
          "attributes": {
            "NORMAL": 1,
            "POSITION": 0,
            "TANGENT": 2,
            "TEXCOORD_0": 3
          },
          "indices": 4,
          "material": 0,
          "mode": 4
        }
      ]
    },
    {
      "name": "defaultMaterial",
      "primitives": [
        {
          "attributes": {
            "NORMAL": 6,
            "POSITION": 5,
            "TANGENT": 7,
            "TEXCOORD_0": 8
          },
          "indices": 9,
          "material": 1,
          "mode": 4
        }
      ]
    },
    {
      "name": "defaultMaterial",
      "primitives": [
        {
          "attributes": {
            "NORMAL": 11,
            "POSITION": 10,
            "TANGENT": 12,
            "TEXCOORD_0": 13
          },
          "indices": 14,
          "material": 1,
          "mode": 4
        }
      ]
    },
    {
      "name": "defaultMaterial",
      "primitives": [
        {
          "attributes": {
            "NORMAL": 16,
            "POSITION": 15,
            "TANGENT": 17,
            "TEXCOORD_0": 18
          },
          "indices": 19,
          "material": 0,
          "mode": 4
        }
      ]
    }
  ],
  "nodes": [
    {
      "children": [
        1
      ],
      "name": "RootNode (gltf orientation matrix)",
      "rotation": [
        -0.70710678118654746,
        -0,
        -0,
        0.70710678118654757
      ]
    },
    {
      "children": [
        2
      ],
      "matrix": [
        1,
        -1.6081226229577292e-16,
        -1.6081226229577292e-16,
        0,
        1.6081226229577292e-16,
        1,
        1.6081226229577292e-16,
        0,
        1.6081226229577292e-16,
        -1.6081226229577292e-16,
        1,
        0,
        -2.1676631911421614e-18,
        -5.5770641438357416e-09,
        -5.2894516024137861e-12,
        1
      ],
      "name": "RootNode (model correction matrix)"
    },
    {
      "children": [
        3,
        5,
        8
      ],
      "matrix": [
        1,
        0,
        0,
        0,
        0,
        -4.3711390063094768e-08,
        0.999999999999999,
        0,
        0,
        -0.999999999999999,
        -4.3711390063094768e-08,
        0,
        0,
        0,
        0,
        1
      ],
      "name": "Collada visual scene group"
    },
    {
      "children": [
        4
      ],
      "name": "g"
    },
    {
      "mesh": 0,
      "name": "defaultMaterial"
    },
    {
      "children": [
        6,
        7
      ],
      "name": "g"
    },
    {
      "mesh": 1,
      "name": "defaultMaterial"
    },
    {
      "mesh": 2,
      "name": "defaultMaterial"
    },
    {
      "children": [
        9
      ],
      "name": "g"
    },
    {
      "mesh": 3,
      "name": "defaultMaterial"
    }
  ],
  "samplers": [
    {
      "magFilter": 9729,
      "minFilter": 9987,
      "wrapS": 10497,
      "wrapT": 10497
    }
  ],
  "scene": 0,
  "scenes": [
    {
      "name": "OSG_Scene",
      "nodes": [
        0
      ]
    }
  ],
  "textures": [
    {
      "sampler": 0,
      "source": 0
    },
    {
      "sampler": 0,
      "source": 1
    },
    {
      "sampler": 0,
      "source": 2
    },
    {
      "sampler": 0,
      "source": 3
    },
    {
      "sampler": 0,
      "source": 4
    },
    {
      "sampler": 0,
      "source": 5
    },
    {
      "sampler": 0,
      "source": 6
    }
  ]
}

